<?xml version="1.0" encoding="UTF-8"?>
<svg version="1.1" xmlns="http://www.w3.org/2000/svg" width="500" height="500">
<path d="M0 0 C0.66 0 1.32 0 2 0 C3.18579102 1.61376953 3.18579102 1.61376953 4.50390625 3.8828125 C4.9922998 4.71256592 5.48069336 5.54231934 5.98388672 6.3972168 C6.5048291 7.29738525 7.02577148 8.19755371 7.5625 9.125 C8.65827753 10.98938673 9.75594072 12.85266643 10.85546875 14.71484375 C11.39478027 15.62862793 11.9340918 16.54241211 12.48974609 17.48388672 C14.36837137 20.61371409 16.35454997 23.64731248 18.375 26.6875 C53.11032525 79.8359663 88.84798574 150.79824139 91 215 C91.0515625 216.14984375 91.103125 217.2996875 91.15625 218.484375 C91.79403729 244.10216445 82.61565506 265.7608233 65.42626953 284.51025391 C48.41253703 302.28118779 24.43671006 310.72084858 0.25 311.3125 C-25.3737312 311.16442161 -48.15841205 301.22128481 -66.59375 283.5078125 C-76.97473267 272.71030892 -83.79762019 260.32859621 -88 246 C-88.36480469 244.84628906 -88.72960937 243.69257813 -89.10546875 242.50390625 C-90.62486626 236.23985491 -90.3686509 229.7812459 -90.375 223.375 C-90.41173828 221.45880859 -90.41173828 221.45880859 -90.44921875 219.50390625 C-90.48568245 207.5073503 -87.92918268 196.58845331 -82.25 186 C-81.90493408 185.33613281 -81.55986816 184.67226563 -81.2043457 183.98828125 C-80.15269644 181.98286609 -79.07992217 179.99030708 -78 178 C-77.68015137 177.401875 -77.36030273 176.80375 -77.03076172 176.1875 C-69.51861975 162.21577357 -60.13256743 149.52647973 -50.83935547 136.7097168 C-45.42384729 129.22989713 -40.12172202 121.68438772 -35 114 C-34.52208008 113.28295898 -34.04416016 112.56591797 -33.55175781 111.82714844 C-13.6155731 81.66660531 0.58030876 51.40858071 0.125 14.6875 C0.11493517 13.25326156 0.1058156 11.81901617 0.09765625 10.38476562 C0.07595449 6.92302885 0.04162455 3.46156148 0 0 Z " fill="#DC5028" transform="translate(250,95)"/>
<path d="M0 0 C2.3125 0.5625 2.3125 0.5625 5 2 C6.75 5.5625 6.75 5.5625 8 9 C8.33 9.33 8.66 9.66 9 10 C9.66 9.01 10.32 8.02 11 7 C11 7.66 11 8.32 11 9 C11.99 8.67 12.98 8.34 14 8 C13.9175 8.9075 13.835 9.815 13.75 10.75 C13.75418184 13.99656463 13.75418184 13.99656463 15.4375 16.375 C19.1853454 18.75168245 22.67144532 18.48626489 27 18 C27.99 17.67 28.98 17.34 30 17 C29.25 22.75 29.25 22.75 27 25 C27.73605469 24.98839844 28.47210938 24.97679687 29.23046875 24.96484375 C30.20628906 24.95582031 31.18210938 24.94679688 32.1875 24.9375 C33.15042969 24.92589844 34.11335938 24.91429687 35.10546875 24.90234375 C37.85576513 24.99513378 40.32479591 25.37888315 43 26 C43.1546875 26.8971875 43.1546875 26.8971875 43.3125 27.8125 C44.14353638 30.45670668 44.80057506 31.31132018 47 33 C50.03262015 33.7757648 50.03262015 33.7757648 53.5625 34.125 C54.20711182 34.20282715 54.85172363 34.2806543 55.51586914 34.36083984 C63.64790139 35.28276008 71.8272201 35.64425471 80 36 C80 36.33 80 36.66 80 37 C66.26656907 38.08516115 54.08195829 38.93926772 41 34 C39.98292969 33.64808594 38.96585938 33.29617188 37.91796875 32.93359375 C23.92613861 27.67061177 8.45323646 17.61190263 0 5 C-0.75 2.8125 -0.75 2.8125 -1 1 C-0.67 0.67 -0.34 0.34 0 0 Z " fill="#CB7A19" transform="translate(178,367)"/>
<path d="M0 0 C0.66 0 1.32 0 2 0 C3.18579102 1.61376953 3.18579102 1.61376953 4.50390625 3.8828125 C4.9922998 4.71256592 5.48069336 5.54231934 5.98388672 6.3972168 C6.76530029 7.74746948 6.76530029 7.74746948 7.5625 9.125 C8.65827753 10.98938673 9.75594072 12.85266643 10.85546875 14.71484375 C11.39478027 15.62862793 11.9340918 16.54241211 12.48974609 17.48388672 C14.36837137 20.61371409 16.35454997 23.64731248 18.375 26.6875 C22.67556117 33.30070179 26.56640603 40.12794741 30.4375 47 C31.05351074 48.08756592 31.66952148 49.17513184 32.30419922 50.2956543 C32.88314941 51.33246338 33.46209961 52.36927246 34.05859375 53.4375 C34.83674438 54.82775391 34.83674438 54.82775391 35.63061523 56.24609375 C37.05273334 59.10604958 38.06163127 61.95051216 39 65 C35.22471696 63.74157232 34.89332955 62.37506571 33 59 C32.34 58.34 31.68 57.68 31 57 C30.19916172 54.94968628 29.54290981 52.87559499 28.87890625 50.77734375 C28.58886719 50.19082031 28.29882812 49.60429687 28 49 C27.01 48.67 26.02 48.34 25 48 C24.12109375 46.14453125 24.12109375 46.14453125 23.4375 43.8125 C23.18742187 43.00425781 22.93734375 42.19601563 22.6796875 41.36328125 C22.11931436 39.41485739 21.587063 37.45836852 21.0625 35.5 C20.2688216 32.8198774 20.2688216 32.8198774 17.875 32.125 C17.25625 32.08375 16.6375 32.0425 16 32 C15.71125 30.865625 15.4225 29.73125 15.125 28.5625 C14.75375 27.386875 14.3825 26.21125 14 25 C13.34 24.67 12.68 24.34 12 24 C11.27259868 22.31375149 10.54956692 20.62527123 9.86328125 18.921875 C8.56435667 16.03015149 6.82803226 13.5844594 5 11 C4.34 12.65 3.68 14.3 3 16 C3.66 16 4.32 16 5 16 C4.83371094 16.51691406 4.66742188 17.03382812 4.49609375 17.56640625 C3.62085368 21.85990673 4.04351919 26.22761761 4.16015625 30.58984375 C4.0032192 33.93145468 3.39624272 36.00202978 2 39 C1.3324171 41.8038482 1 44.10877654 1 47 C0.61018448 48.88549068 0.16719273 50.76034825 -0.3125 52.625 C-0.55613281 53.60726562 -0.79976562 54.58953125 -1.05078125 55.6015625 C-1.36402344 56.39304688 -1.67726562 57.18453125 -2 58 C-3.485 58.495 -3.485 58.495 -5 59 C-4.89042969 58.40316406 -4.78085938 57.80632812 -4.66796875 57.19140625 C-4.31888549 55.28138156 -3.97894389 53.36967906 -3.64453125 51.45703125 C-3.21486072 49.15243475 -2.73282013 46.85699148 -2.19921875 44.57421875 C0.9684195 29.87697778 0.2763657 14.9535103 0 0 Z " fill="#69382D" transform="translate(250,95)"/>
<path d="M0 0 C0.33 0 0.66 0 1 0 C2.81573806 9.63825739 4.57915995 19.18039874 5 29 C5.05285156 30.15757812 5.10570312 31.31515625 5.16015625 32.5078125 C5.61815452 51.58443625 0.9379292 71.70837419 -11 87 C-11.99 87.495 -11.99 87.495 -13 88 C-13 86.35 -13 84.7 -13 83 C-12.34 83 -11.68 83 -11 83 C-10.896875 82.360625 -10.79375 81.72125 -10.6875 81.0625 C-10.460625 80.381875 -10.23375 79.70125 -10 79 C-8.515 78.505 -8.515 78.505 -7 78 C-7 76.35 -7 74.7 -7 73 C-6.34 73 -5.68 73 -5 73 C-4.67 69.7 -4.34 66.4 -4 63 C-3.34 63 -2.68 63 -2 63 C-1.87882812 62.45472656 -1.75765625 61.90945313 -1.6328125 61.34765625 C0 54 0 54 0.51000977 52.05981445 C2.02551993 46.00249502 2.27063062 40.28854619 2.1875 34.0625 C2.18685547 33.11826172 2.18621094 32.17402344 2.18554688 31.20117188 C2.33125596 26.44234723 2.33125596 26.44234723 1 22 C0.84777027 20.33434251 0.75082785 18.66343504 0.68359375 16.9921875 C0.64169922 16.00605469 0.59980469 15.01992188 0.55664062 14.00390625 C0.51732422 12.97136719 0.47800781 11.93882812 0.4375 10.875 C0.39431641 9.83472656 0.35113281 8.79445313 0.30664062 7.72265625 C0.2003712 5.14857472 0.09833417 2.57439492 0 0 Z " fill="#8A2525" transform="translate(336,281)"/>
<path d="M0 0 C1.64956143 2.96921058 2.66052758 5.60527583 3 9 C2.0625 11.3125 2.0625 11.3125 1 13 C-0.32 13 -1.64 13 -3 13 C-3.20496094 13.62648437 -3.40992188 14.25296875 -3.62109375 14.8984375 C-3.89050781 15.71570313 -4.15992188 16.53296875 -4.4375 17.375 C-4.70433594 18.18710938 -4.97117188 18.99921875 -5.24609375 19.8359375 C-6 22 -6 22 -7 24 C-6.34 24 -5.68 24 -5 24 C-5.33 24.66 -5.66 25.32 -6 26 C-6.66 25.67 -7.32 25.34 -8 25 C-8.268125 25.61875 -8.53625 26.2375 -8.8125 26.875 C-10 29 -10 29 -13 31 C-13.6837045 32.32467746 -14.34964186 33.65863633 -15 35 C-16 36 -17 37 -18 38 C-18.45375 38.804375 -18.9075 39.60875 -19.375 40.4375 C-21.21005459 43.33123993 -23.2486119 44.99223031 -26 47 C-26 43.55988026 -25.3982025 42.74596525 -23.5078125 39.96484375 C-22.9720459 39.16385254 -22.4362793 38.36286133 -21.88427734 37.53759766 C-21.30371582 36.67956543 -20.7231543 35.8215332 -20.125 34.9375 C-12.65779757 23.69467669 -5.96054381 12.11091386 0 0 Z M1 6 C2 8 2 8 2 8 Z " fill="#A73531" transform="translate(237,171)"/>
<path d="M0 0 C2.13938845 3.20908268 3.26458012 6.36193699 4.4609375 9.984375 C4.6927774 10.67702454 4.92461731 11.36967407 5.16348267 12.08331299 C5.65482311 13.55529281 6.1438912 15.02803279 6.63085938 16.50146484 C7.35926914 18.7024668 8.09699544 20.90017149 8.8359375 23.09765625 C17.3648378 48.6375386 17.3648378 48.6375386 17 56 C16.34 56 15.68 56 15 56 C12.83699359 50.69080246 11.41291446 45.65314887 10.4296875 40.00390625 C10.1921136 38.01106709 10.1921136 38.01106709 9 37 C8.65458149 34.66842508 8.32205743 32.33491639 8 30 C7.67 29.01 7.34 28.02 7 27 C5.68 27.33 4.36 27.66 3 28 C3.03480469 26.82244141 3.03480469 26.82244141 3.0703125 25.62109375 C3.18718201 18.81761861 3.08677912 13.17355824 0 7 C-0.04022391 4.6670134 -0.04320247 2.33293334 0 0 Z " fill="#953630" transform="translate(319,224)"/>
<path d="M0 0 C0.66 0.33 1.32 0.66 2 1 C2 2.98 2 4.96 2 7 C1.34 7 0.68 7 0 7 C0 7.99 0 8.98 0 10 C-0.99 9.67 -1.98 9.34 -3 9 C-3.3403125 10.175625 -3.3403125 10.175625 -3.6875 11.375 C-4.79960104 14.44651715 -6.05557197 17.11680244 -7.5625 20 C-9.45375297 23.68238079 -10.66981015 26.81759528 -11 31 C-11.66 31 -12.32 31 -13 31 C-13.33 31.99 -13.66 32.98 -14 34 C-13.61760715 23.2930001 -9.22185673 12.29745222 -4 3 C-1.8125 2.125 -1.8125 2.125 0 2 C0 1.34 0 0.68 0 0 Z " fill="#D86322" transform="translate(174,273)"/>
<path d="M0 0 C0.66 0 1.32 0 2 0 C1.67 2.31 1.34 4.62 1 7 C1.66 7 2.32 7 3 7 C2.83371094 7.51691406 2.66742188 8.03382812 2.49609375 8.56640625 C1.62085368 12.85990673 2.04351919 17.22761761 2.16015625 21.58984375 C2.0032192 24.93145468 1.39624272 27.00202978 0 30 C-0.6675829 32.8038482 -1 35.10877654 -1 38 C-1.38981552 39.88549068 -1.83280727 41.76034825 -2.3125 43.625 C-2.55613281 44.60726562 -2.79976562 45.58953125 -3.05078125 46.6015625 C-3.36402344 47.39304688 -3.67726562 48.18453125 -4 49 C-5.485 49.495 -5.485 49.495 -7 50 C-6.75151319 48.60389649 -6.50100127 47.20815363 -6.25 45.8125 C-6.07082031 44.80960938 -5.89164063 43.80671875 -5.70703125 42.7734375 C-5.17155765 39.91560601 -4.60475464 37.07246278 -4.01171875 34.2265625 C-1.6654833 22.77684757 -0.28535493 11.68528424 0 0 Z " fill="#783129" transform="translate(252,104)"/>
<path d="M0 0 C0.66 0.33 1.32 0.66 2 1 C1.67768719 4.02425422 0.98850107 5.01129684 -1.22265625 7.18359375 C-11.95969773 15.70528967 -11.95969773 15.70528967 -18 19 C-18.66 18.67 -19.32 18.34 -20 18 C-19.505 16.515 -19.505 16.515 -19 15 C-18.01 15 -17.02 15 -16 15 C-15.67 13.68 -15.34 12.36 -15 11 C-15.66 11 -16.32 11 -17 11 C-17 10.34 -17 9.68 -17 9 C-12.545 9.99 -12.545 9.99 -8 11 C-7.67 10.01 -7.34 9.02 -7 8 C-6.34 8 -5.68 8 -5 8 C-5.185625 7.38125 -5.37125 6.7625 -5.5625 6.125 C-6 4 -6 4 -5 2 C-3.67696283 1.6278958 -2.34262065 1.29369827 -1 1 C-0.67 0.67 -0.34 0.34 0 0 Z " fill="#B94A26" transform="translate(313,376)"/>
<path d="M0 0 C2.88614502 0.90616798 4.61967798 1.50348757 6.4855957 3.93945312 C6.87835693 4.71224609 7.27111816 5.48503906 7.67578125 6.28125 C8.11083984 7.12300781 8.54589844 7.96476563 8.99414062 8.83203125 C9.42919922 9.71246094 9.86425781 10.59289062 10.3125 11.5 C10.76689453 12.38042969 11.22128906 13.26085937 11.68945312 14.16796875 C15 20.66958412 15 20.66958412 15 23 C11.22471696 21.74157232 10.89332955 20.37506571 9 17 C8.34 16.34 7.68 15.68 7 15 C6.19916172 12.94968628 5.54290981 10.87559499 4.87890625 8.77734375 C4.58886719 8.19082031 4.29882812 7.60429687 4 7 C3.01 6.67 2.02 6.34 1 6 C0.67 4.02 0.34 2.04 0 0 Z " fill="#7C3A30" transform="translate(274,137)"/>
<path d="M0 0 C2 3 2 3 2 5 C2.66 5.66 3.32 6.32 4 7 C2.6875 10.4375 2.6875 10.4375 1 14 C0.01 14.33 -0.98 14.66 -2 15 C-2.66 15.66 -3.32 16.32 -4 17 C-4.66 17 -5.32 17 -6 17 C-4.13236819 11.27789404 -2.14710968 5.62338249 0 0 Z " fill="#9E3730" transform="translate(244,154)"/>
<path d="M0 0 C-0.33 1.32 -0.66 2.64 -1 4 C-1.99 4 -2.98 4 -4 4 C-4.33 5.32 -4.66 6.64 -5 8 C-5.60328125 8.13277344 -6.2065625 8.26554687 -6.828125 8.40234375 C-7.62734375 8.57894531 -8.4265625 8.75554687 -9.25 8.9375 C-10.03890625 9.11152344 -10.8278125 9.28554688 -11.640625 9.46484375 C-13.76878703 9.947556 -15.88532842 10.46163178 -18 11 C-17.67 9.68 -17.34 8.36 -17 7 C-15.989375 6.773125 -14.97875 6.54625 -13.9375 6.3125 C-10.18751896 5.27041602 -7.58173108 3.45158634 -4.578125 1.0234375 C-3 0 -3 0 0 0 Z " fill="#E7651F" transform="translate(298,387)"/>
<path d="M0 0 C0.66 0.33 1.32 0.66 2 1 C2.99539567 8.29956826 -0.28656016 13.86021422 -4 20 C-5.57558955 21.96236218 -7.051411 23.39527965 -9 25 C-9 23.35 -9 21.7 -9 20 C-8.34 20 -7.68 20 -7 20 C-6.896875 19.360625 -6.79375 18.72125 -6.6875 18.0625 C-6.460625 17.381875 -6.23375 16.70125 -6 16 C-5.01 15.67 -4.02 15.34 -3 15 C-3 13.35 -3 11.7 -3 10 C-2.34 10 -1.68 10 -1 10 C-0.67 6.7 -0.34 3.4 0 0 Z " fill="#AD3E26" transform="translate(332,344)"/>
<path d="M0 0 C0.33 0 0.66 0 1 0 C4.13006533 13.71266715 4.34536839 26.97450119 4 41 C3.67 41 3.34 41 3 41 C2.93941406 39.79601562 2.87882812 38.59203125 2.81640625 37.3515625 C2.73200268 35.77602923 2.64735459 34.20050904 2.5625 32.625 C2.52318359 31.8309375 2.48386719 31.036875 2.44335938 30.21875 C2.31106596 25.97398779 2.31106596 25.97398779 1 22 C0.84777027 20.33434251 0.75082785 18.66343504 0.68359375 16.9921875 C0.64169922 16.00605469 0.59980469 15.01992188 0.55664062 14.00390625 C0.51732422 12.97136719 0.47800781 11.93882812 0.4375 10.875 C0.39431641 9.83472656 0.35113281 8.79445313 0.30664062 7.72265625 C0.2003712 5.14857472 0.09833417 2.57439492 0 0 Z " fill="#94302F" transform="translate(336,281)"/>
<path d="M0 0 C2.72772048 2.72772048 3.7460131 5.97005745 5.125 9.5 C5.54072266 10.53447266 5.54072266 10.53447266 5.96484375 11.58984375 C8 16.73287408 8 16.73287408 8 19 C6.02 18.67 4.04 18.34 2 18 C1.11800435 14.06437237 0.72181817 10.20857125 0.4375 6.1875 C0.35371094 5.02605469 0.26992188 3.86460937 0.18359375 2.66796875 C0.12300781 1.78753906 0.06242187 0.90710938 0 0 Z " fill="#A13D31" transform="translate(311,205)"/>
<path d="M0 0 C5.51674987 8.27512481 6.00714203 17.37511802 7 27 C5.68 27.33 4.36 27.66 3 28 C3.03480469 26.82244141 3.03480469 26.82244141 3.0703125 25.62109375 C3.18718201 18.81761861 3.08677912 13.17355824 0 7 C-0.04022391 4.6670134 -0.04320247 2.33293334 0 0 Z " fill="#BD3F39" transform="translate(319,224)"/>
<path d="M0 0 C2.44814179 3.0296652 4.09452853 6.07549599 5.6875 9.625 C6.12449219 10.58664063 6.56148438 11.54828125 7.01171875 12.5390625 C8 15 8 15 8 17 C7.01 16.67 6.02 16.34 5 16 C4.71125 15.175 4.4225 14.35 4.125 13.5 C3.75375 12.675 3.3825 11.85 3 11 C0.45224694 10.10613836 0.45224694 10.10613836 -2 10 C-2 7.36 -2 4.72 -2 2 C-1.34 2 -0.68 2 0 2 C0 1.34 0 0.68 0 0 Z " fill="#9A3F35" transform="translate(300,181)"/>
<path d="M0 0 C0.6875 1.75 0.6875 1.75 1 4 C-0.125 6.25 -0.125 6.25 -2 8 C-4.6875 8.25 -4.6875 8.25 -7 8 C-7.103125 7.360625 -7.20625 6.72125 -7.3125 6.0625 C-7.539375 5.381875 -7.76625 4.70125 -8 4 C-8.99 3.67 -9.98 3.34 -11 3 C-7.52890832 0.68593888 -6.05121887 0.91380385 -2 1 C-1.34 0.67 -0.68 0.34 0 0 Z " fill="#F08D0E" transform="translate(207,384)"/>
<path d="M0 0 C1 2 1 2 0.25 4.9375 C-0.89861935 7.75161742 -1.60483069 9.20362301 -4 11 C-4.66 11 -5.32 11 -6 11 C-6.2475 11.94875 -6.495 12.8975 -6.75 13.875 C-8 17 -8 17 -10.125 18.375 C-10.74375 18.58125 -11.3625 18.7875 -12 19 C-12 19.66 -12 20.32 -12 21 C-12.66 21 -13.32 21 -14 21 C-12.66989397 18.21331377 -11.1874526 15.68446003 -9.43359375 13.14453125 C-8.94826172 12.44005859 -8.46292969 11.73558594 -7.96289062 11.00976562 C-7.45951172 10.28466797 -6.95613281 9.55957031 -6.4375 8.8125 C-5.67663086 7.70745117 -5.67663086 7.70745117 -4.90039062 6.58007812 C-1.1460891 1.1460891 -1.1460891 1.1460891 0 0 Z " fill="#9B3329" transform="translate(209,218)"/>
<path d="M0 0 C3.46387857 3.20402595 5.17952687 6.88088372 7.25 11.0625 C7.81460937 12.16174805 7.81460937 12.16174805 8.390625 13.28320312 C9.32672315 15.1571202 10.17106206 17.07627787 11 19 C10.67 19.66 10.34 20.32 10 21 C9.34 21 8.68 21 8 21 C7.71125 20.195625 7.4225 19.39125 7.125 18.5625 C6.26737432 15.8673532 6.26737432 15.8673532 4 15 C3.59270772 12.67843403 3.25561323 10.3431213 3 8 C2.01 8 1.02 8 0 8 C0 5.36 0 2.72 0 0 Z " fill="#70332A" transform="translate(289,160)"/>
<path d="M0 0 C0.66 0.99 1.32 1.98 2 3 C0.9545437 6.13636891 0.23811043 6.76188957 -2 9 C-2.45375 9.804375 -2.9075 10.60875 -3.375 11.4375 C-5.21005459 14.33123993 -7.2486119 15.99223031 -10 18 C-10 14.71336183 -9.59963148 14.03946105 -7.8125 11.42578125 C-7.36132812 10.75869141 -6.91015625 10.09160156 -6.4453125 9.40429688 C-5.96835938 8.71400391 -5.49140625 8.02371094 -5 7.3125 C-4.52304688 6.61060547 -4.04609375 5.90871094 -3.5546875 5.18554688 C-2.37596072 3.45281851 -1.18877663 1.72584893 0 0 Z " fill="#A12B2C" transform="translate(221,200)"/>
<path d="M0 0 C1.32 0 2.64 0 4 0 C4 0.99 4 1.98 4 3 C4.66 3 5.32 3 6 3 C5.67 3.66 5.34 4.32 5 5 C4.34 4.67 3.68 4.34 3 4 C2.7525 4.598125 2.505 5.19625 2.25 5.8125 C0.83629988 8.28647521 -0.65055383 9.43370255 -3 11 C-3.66 10.67 -4.32 10.34 -5 10 C-3.49760034 6.38058265 -2.17854707 3.2678206 0 0 Z " fill="#D03938" transform="translate(226,192)"/>
<path d="M0 0 C4.60470588 1.45411765 4.60470588 1.45411765 6.3125 3.8125 C7.09802451 6.31189617 7.14472595 8.39493282 7 11 C2.25 10.25 2.25 10.25 0 8 C-0.26991906 5.31160615 -0.08737357 2.70858064 0 0 Z " fill="#ED8614" transform="translate(161,326)"/>
<path d="M0 0 C1.53648637 4.97995938 -0.10992262 8.85334279 -2.0625 13.5625 C-3.13604079 16.35370604 -3.58768384 19.04506751 -4 22 C-4.66 22 -5.32 22 -6 22 C-6.33 22.99 -6.66 23.98 -7 25 C-6.67815391 15.98830962 -3.31711617 8.26743022 0 0 Z " fill="#9D541E" transform="translate(167,282)"/>
<path d="M0 0 C0.5859375 1.90625 0.5859375 1.90625 1 4 C-0.375 5.5 -0.375 5.5 -2 7 C-2.165 7.66 -2.33 8.32 -2.5 9 C-3.11223732 11.44894929 -4.16739639 12.32011336 -6 14 C-6.33 14.66 -6.66 15.32 -7 16 C-7.66 16 -8.32 16 -9 16 C-9 16.66 -9 17.32 -9 18 C-9.99 18.33 -10.98 18.66 -12 19 C-10.42686828 14.27156386 -7.79358765 10.6566157 -4.875 6.6875 C-4.17310547 5.71973633 -4.17310547 5.71973633 -3.45703125 4.73242188 C-2.3094071 3.15151106 -1.15534523 1.57527699 0 0 Z " fill="#A54026" transform="translate(194,239)"/>
<path d="M0 0 C0.66 0 1.32 0 2 0 C1.67 2.31 1.34 4.62 1 7 C1.66 7 2.32 7 3 7 C2.83371094 7.51691406 2.66742188 8.03382812 2.49609375 8.56640625 C1.62085368 12.85990673 2.04351919 17.22761761 2.16015625 21.58984375 C2.00479007 24.89800655 1.43007558 27.04451046 0 30 C-0.33 30 -0.66 30 -1 30 C-1.17707265 19.96588331 -0.62277469 10.00887894 0 0 Z " fill="#9C4B3E" transform="translate(252,104)"/>
<path d="M0 0 C0.66 0 1.32 0 2 0 C2 0.66 2 1.32 2 2 C2.66 2.33 3.32 2.66 4 3 C2.71034824 4.37562854 1.37310707 5.70766393 0 7 C-0.66 7 -1.32 7 -2 7 C-2.33 8.65 -2.66 10.3 -3 12 C-3.66 12 -4.32 12 -5 12 C-5 12.66 -5 13.32 -5 14 C-5.99 14.33 -6.98 14.66 -8 15 C-6.62992438 11.34426939 -4.98982135 8.04532353 -3 4.6875 C-2.484375 3.80449219 -1.96875 2.92148437 -1.4375 2.01171875 C-0.7259375 1.01591797 -0.7259375 1.01591797 0 0 Z " fill="#B84F23" transform="translate(179,261)"/>
<path d="M0 0 C1.52519276 0.08937803 3.04681929 0.24537146 4.5625 0.4375 C5.80193359 0.59025391 5.80193359 0.59025391 7.06640625 0.74609375 C7.70449219 0.82988281 8.34257812 0.91367187 9 1 C9.12375 1.763125 9.2475 2.52625 9.375 3.3125 C9.88102792 6.20267136 9.88102792 6.20267136 12 9 C10.02 8.34 8.04 7.68 6 7 C6 6.67 6 6.34 6 6 C3.03 5.505 3.03 5.505 0 5 C-0.5625 3.0625 -0.5625 3.0625 -1 1 C-0.67 0.67 -0.34 0.34 0 0 Z " fill="#F18B11" transform="translate(213,392)"/>
<path d="M0 0 C2.3125 0.5 2.3125 0.5 5 2 C6.34219295 4.5690412 7.20425705 7.21813439 8 10 C5.1875 9.4375 5.1875 9.4375 2 8 C0.55911437 5.71463927 -0.13569208 3.59292376 -1 1 C-0.67 0.67 -0.34 0.34 0 0 Z " fill="#D98513" transform="translate(178,367)"/>
<path d="M0 0 C2.95814719 2.61227152 4.71876108 5.66570307 6.6875 9.0625 C7.31011719 10.12597656 7.93273437 11.18945312 8.57421875 12.28515625 C10 15 10 15 10 17 C6.21165605 15.73721868 5.77988722 14.47887048 4 11 C3.66666667 9.66666667 3.33333333 8.33333333 3 7 C2.34 6.67 1.68 6.34 1 6 C0.375 2.9375 0.375 2.9375 0 0 Z " fill="#663129" transform="translate(267,121)"/>
<path d="M0 0 C4.96457185 4.82272694 7.43928103 8.99101286 8 16 C7.34 16.33 6.68 16.66 6 17 C5.71125 15.865625 5.4225 14.73125 5.125 13.5625 C4.75375 12.386875 4.3825 11.21125 4 10 C3.34 9.67 2.68 9.34 2 9 C1.3671875 6.93359375 1.3671875 6.93359375 0.875 4.4375 C0.70742188 3.61121094 0.53984375 2.78492187 0.3671875 1.93359375 C0.24601562 1.29550781 0.12484375 0.65742187 0 0 Z " fill="#813E33" transform="translate(260,110)"/>
<path d="M0 0 C-2.96346786 2.47186455 -5.54041689 3.66248361 -9.25 4.6875 C-10.14203125 4.93886719 -11.0340625 5.19023437 -11.953125 5.44921875 C-12.62859375 5.63097656 -13.3040625 5.81273437 -14 6 C-13 3 -13 3 -11.328125 2.05078125 C-7.43666975 0.66829057 -4.19816517 -0.39357798 0 0 Z " fill="#9D4C1F" transform="translate(293,395)"/>
<path d="M0 0 C1.32 0.33 2.64 0.66 4 1 C4.3125 3.8125 4.3125 3.8125 4 7 C1.625 8.9375 1.625 8.9375 -1 10 C-1.66 9.67 -2.32 9.34 -3 9 C-2.67 8.01 -2.34 7.02 -2 6 C-1.01 6 -0.02 6 1 6 C1.33 4.68 1.66 3.36 2 2 C1.34 2 0.68 2 0 2 C0 1.34 0 0.68 0 0 Z " fill="#B95120" transform="translate(296,385)"/>
<path d="M0 0 C0.99 0 1.98 0 3 0 C3 0.66 3 1.32 3 2 C3.99 2.33 4.98 2.66 6 3 C5.34 3 4.68 3 4 3 C4 3.66 4 4.32 4 5 C4.99 5 5.98 5 7 5 C7 5.66 7 6.32 7 7 C5.35 7.33 3.7 7.66 2 8 C2 6.68 2 5.36 2 4 C1.34 4 0.68 4 0 4 C0 2.68 0 1.36 0 0 Z " fill="#F08F12" transform="translate(169,352)"/>
<path d="M0 0 C2.24956302 2.24956302 3.00510965 4.06323263 4.1875 7 C4.55230469 7.886875 4.91710937 8.77375 5.29296875 9.6875 C6 12 6 12 5 14 C2.37200898 12.13497412 1.13634249 10.69589209 0.51171875 7.5078125 C0.27406427 5.0035728 0.0959336 2.51346021 0 0 Z " fill="#7A3129" transform="translate(311,205)"/>
<path d="M0 0 C2.31 0 4.62 0 7 0 C7 0.66 7 1.32 7 2 C9.31 2.66 11.62 3.32 14 4 C14 4.66 14 5.32 14 6 C9.2460133 4.85248597 4.62107093 3.61737483 0 2 C0 1.34 0 0.68 0 0 Z " fill="#AB6B1A" transform="translate(213,397)"/>
<path d="M0 0 C3.21764451 4.82646677 4.36261136 10.19821824 4 16 C3.34 16 2.68 16 2 16 C1.66259915 14.08404518 1.33023588 12.16720278 1 10.25 C0.814375 9.18265625 0.62875 8.1153125 0.4375 7.015625 C0 4 0 4 0 0 Z " fill="#762926" transform="translate(332,264)"/>
<path d="M0 0 C0.33 0 0.66 0 1 0 C1.1953125 6.0546875 1.1953125 6.0546875 1 8 C0.34 8.66 -0.32 9.32 -1 10 C-1.99 9.67 -2.98 9.34 -4 9 C-2.94124926 5.59687262 -1.99097846 2.98646769 0 0 Z " fill="#952E2D" transform="translate(231,183)"/>
<path d="M0 0 C1.62276158 2.43414237 2.61744792 4.31319446 3.625 7 C3.88539063 7.680625 4.14578125 8.36125 4.4140625 9.0625 C5 11 5 11 5 14 C4.34 14 3.68 14 3 14 C0.56574762 9.03006806 -0.34615998 5.65394631 0 0 Z " fill="#752E2B" transform="translate(319,224)"/>
<path d="M0 0 C0.66 0 1.32 0 2 0 C2.66 1.65 3.32 3.3 4 5 C1 7 1 7 -2 7 C-1.125 1.125 -1.125 1.125 0 0 Z " fill="#DB3933" transform="translate(211,217)"/>
<path d="M0 0 C2.12161334 2.12161334 2.92986249 3.7733159 4.125 6.5 C4.47820312 7.2940625 4.83140625 8.088125 5.1953125 8.90625 C6 11 6 11 6 13 C3 12 3 12 1.3125 9.3125 C-0.03558623 5.91018714 -0.25833766 3.61672729 0 0 Z " fill="#703227" transform="translate(302,185)"/>
<path d="M0 0 C0.66 0.33 1.32 0.66 2 1 C2.36923077 7.52307692 2.36923077 7.52307692 0.5 9.9375 C0.005 10.288125 -0.49 10.63875 -1 11 C-1.14285714 3.57142857 -1.14285714 3.57142857 0 0 Z " fill="#C63934" transform="translate(332,344)"/>
<path d="M0 0 C1.65 0.33 3.3 0.66 5 1 C5 2.32 5 3.64 5 5 C3.35 5 1.7 5 0 5 C0 3.33333333 0 1.66666667 0 0 Z " fill="#DD8514" transform="translate(200,387)"/>
<path d="M0 0 C3.5742977 0.32493615 5.55712453 0.63870686 8.375 2.9375 C10 5 10 5 10 7 C5.56541027 5.6062718 3.12621626 3.39417765 0 0 Z " fill="#AD6C1E" transform="translate(189,383)"/>
<path d="M0 0 C1.60372657 4.00931642 0.38691773 7.05823382 -1 11 C-1.66 11.66 -2.32 12.32 -3 13 C-3.38281159 7.76824163 -2.21854707 4.62197306 0 0 Z " fill="#AC5A23" transform="translate(167,282)"/>
<path d="M0 0 C0 0.66 0 1.32 0 2 C-2.64738916 3.4606285 -3.89448334 4 -7 4 C-6.625 2.0625 -6.625 2.0625 -6 0 C-3.50907189 -1.24546405 -2.58919267 -0.7767578 0 0 Z " fill="#EF6A19" transform="translate(287,394)"/>
<path d="M0 0 C1.32 0.33 2.64 0.66 4 1 C2.55746343 4.36591866 0.66735273 6.51047079 -2 9 C-2 7.68 -2 6.36 -2 5 C-1.34 5 -0.68 5 0 5 C0 3.35 0 1.7 0 0 Z " fill="#A73C27" transform="translate(319,368)"/>
<path d="M0 0 C0.99 0.33 1.98 0.66 3 1 C1.8562364 1.83617182 0.70992861 2.66886459 -0.4375 3.5 C-1.39462891 4.19609375 -1.39462891 4.19609375 -2.37109375 4.90625 C-4 6 -4 6 -5 6 C-5 4.35 -5 2.7 -5 1 C-2.525 1.495 -2.525 1.495 0 2 C0 1.34 0 0.68 0 0 Z " fill="#98411E" transform="translate(305,385)"/>
<path d="M0 0 C0.99 0.33 1.98 0.66 3 1 C1.7508258 4.45925163 0.32472205 7.14693203 -2 10 C-2 8.35 -2 6.7 -2 5 C-1.34 5 -0.68 5 0 5 C0 3.35 0 1.7 0 0 Z " fill="#9C3228" transform="translate(329,354)"/>
<path d="M0 0 C0.99 0.33 1.98 0.66 3 1 C3 2.65 3 4.3 3 6 C3.66 6 4.32 6 5 6 C4.67 7.32 4.34 8.64 4 10 C3.32845067 8.71086513 2.66291141 7.41859796 2 6.125 C1.62875 5.40570313 1.2575 4.68640625 0.875 3.9453125 C0 2 0 2 0 0 Z " fill="#A36518" transform="translate(166,350)"/>
<path d="M0 0 C0.99 0 1.98 0 3 0 C3.33 2.31 3.66 4.62 4 7 C3.01 7.495 3.01 7.495 2 8 C1.10869587 5.3260876 0.52268466 2.76276177 0 0 Z " fill="#AE4637" transform="translate(289,168)"/>
<path d="M0 0 C1.0326802 2.78823655 1.04509293 3.8677274 0.0625 6.75 C-0.288125 7.4925 -0.63875 8.235 -1 9 C-1.66 9 -2.32 9 -3 9 C-2.67 6.69 -2.34 4.38 -2 2 C-1.34 2 -0.68 2 0 2 C0 1.34 0 0.68 0 0 Z " fill="#933A38" transform="translate(248,145)"/>
<path d="M0 0 C3.3 0 6.6 0 10 0 C9.67 0.66 9.34 1.32 9 2 C6.125 2.8125 6.125 2.8125 3 3 C2.01 2.01 1.02 1.02 0 0 Z " fill="#CA7714" transform="translate(202,392)"/>
<path d="M0 0 C0.66 0 1.32 0 2 0 C2.36923077 5.53846154 2.36923077 5.53846154 0.5 7.875 C-0.2425 8.431875 -0.2425 8.431875 -1 9 C-1.99 8.67 -2.98 8.34 -4 8 C-3.2884375 7.13375 -3.2884375 7.13375 -2.5625 6.25 C-1.0515133 4.07417916 -0.45963849 2.57397552 0 0 Z " fill="#E55A27" transform="translate(306,378)"/>
<path d="M0 0 C1.5 1.1875 1.5 1.1875 3 3 C3.1875 5.6875 3.1875 5.6875 3 8 C2.01 8 1.02 8 0 8 C0 5.36 0 2.72 0 0 Z " fill="#843B2F" transform="translate(289,160)"/>
<path d="M0 0 C1 2 1 2 0.0625 5.125 C-0.288125 6.07375 -0.63875 7.0225 -1 8 C-1.99 8 -2.98 8 -4 8 C-2.87548273 5.0280615 -1.77706209 2.66559313 0 0 Z " fill="#852826" transform="translate(226,192)"/>
</svg>